# xmcd
#
# Track frame offsets:
#	150
#	20021
#	36561
#	50611
#	68187
#	84263
#	97157
#	112682
#	127894
#	145337
#	159248
#	175079
#	191290
#
# Disc length: 2829 seconds
#
# Revision: 2
# Processed by: cddbd v1.5.1PL0 Copyright (c) Steve Scherf et al.
# Submitted via: audiograbber 1.83.01
#
DISCID=a70b0b0d
DTITLE=Dierks Bentley - Dierks Bentley
DYEAR=1900
DGENRE=
TTITLE0=What Was I Thinkin'
TTITLE1=Wish It Would Break
TTITLE2=Forget About You
TTITLE3=I Can Only Think Of One
TTITLE4=My Last Name
TTITLE5=Bartenders, Etc
TTITLE6=Is Anybody Loving You These D
TTITLE7=My Love Will Follow You
TTITLE8=How Am I Doin'
TTITLE9=Distant Shore
TTITLE10=I Bought The Shoes
TTITLE11=Whiskey Tears
TTITLE12=Train Travelin' (With The Del
EXTD=
EXTT0=
EXTT1=
EXTT2=
EXTT3=
EXTT4=
EXTT5=
EXTT6=
EXTT7=
EXTT8=
EXTT9=
EXTT10=
EXTT11=
EXTT12=
PLAYORDER=
